# xmcd
#
# Track frame offsets:
#   150
#   17704
#   33150
#   51337
#   65214
#   85137
#   98810
#   111239
#   127314
#   141275
#   156206
#   172144
#   188440
#   202240
#   220762
#   241545
#   256303
#   273984
#   290474
#   307532
#
# Disc length: 4276 seconds
#
# Revision: 0
# Processed by: cddbd v1.5.2PL0 Copyright (c) Steve Scherf et al.
# Submitted via: GXTranscoder 2.0.1939
#
DISCID=2310b214
DTITLE=Fernando and Sorocaba - As 20+
DYEAR=1900
DGENRE=Country
TTITLE0=Bala de Prata [Ao Vivo]
TTITLE1=Paga Pau
TTITLE2=Vem Ficar do Meu Lado
TTITLE3=Da Cor do Pecado
TTITLE4=Volta Lá Pro Seu Lugar
TTITLE5=Força de Um Furacão
TTITLE6=Chevetão
TTITLE7=Juliana
TTITLE8=Vítimas do Amor
TTITLE9=Vendaval
TTITLE10=Que Raiva Que Dá
TTITLE11=Um Quadro
TTITLE12=Estrela Solitária
TTITLE13=Consequências de te Amar
TTITLE14=Companheiro
TTITLE15=O Mundo Avisou
TTITLE16=Brilho no Olhar
TTITLE17=Você é Mais
TTITLE18=100% Você
TTITLE19=Livre Pro Amor
EXTD=
EXTT0=
EXTT1=
EXTT2=
EXTT3=
EXTT4=
EXTT5=
EXTT6=
EXTT7=
EXTT8=
EXTT9=
EXTT10=
EXTT11=
EXTT12=
EXTT13=
EXTT14=
EXTT15=
EXTT16=
EXTT17=
EXTT18=
EXTT19=
PLAYORDER=
